<svg xmlns="http://www.w3.org/2000/svg" viewBox="0 0 860 220" role="img" aria-labelledby="title desc">
  <title id="title">Kendr logo</title>
  <desc id="desc">A networked intelligence mark next to the Kendr wordmark.</desc>
  <defs>
    <linearGradient id="panel" x1="24" y1="24" x2="196" y2="196" gradientUnits="userSpaceOnUse">
      <stop offset="0" stop-color="#111827"/>
      <stop offset="1" stop-color="#0F172A"/>
    </linearGradient>
    <linearGradient id="core" x1="54" y1="54" x2="166" y2="166" gradientUnits="userSpaceOnUse">
      <stop offset="0" stop-color="#FB923C"/>
      <stop offset="1" stop-color="#38BDF8"/>
    </linearGradient>
  </defs>
  <rect x="24" y="24" width="172" height="172" rx="42" fill="url(#panel)" stroke="#334155" stroke-width="2"/>
  <path d="M67 126L109 86L149 102L135 149L84 154L67 126Z" fill="none" stroke="#E2E8F0" stroke-width="6" stroke-linecap="round" stroke-linejoin="round"/>
  <path d="M67 126L54 73M109 86L135 53M149 102L168 151M84 154L121 171" stroke="url(#core)" stroke-width="8" stroke-linecap="round"/>
  <circle cx="54" cy="73" r="13" fill="#FB923C"/>
  <circle cx="135" cy="53" r="13" fill="#FDBA74"/>
  <circle cx="168" cy="151" r="13" fill="#38BDF8"/>
  <circle cx="121" cy="171" r="13" fill="#2DD4BF"/>
  <circle cx="109" cy="86" r="16" fill="#E2E8F0"/>
  <path d="M109 73L112 83H123L114 90L118 101L109 94L100 101L104 90L95 83H106L109 73Z" fill="#0F172A"/>
  <text x="236" y="98" fill="#F8FAFC" font-family="Segoe UI, Arial, sans-serif" font-size="58" font-weight="700">Kendr</text>
  <text x="240" y="138" fill="#94A3B8" font-family="Segoe UI, Arial, sans-serif" font-size="19" font-weight="700" letter-spacing="3.2">MULTI-AGENT INTELLIGENCE WORKSPACE</text>
</svg>
